<svg width="196" height="46" viewBox="0 0 196 46" fill="none" xmlns="http://www.w3.org/2000/svg">
<path d="M0 30.4479V15.4491H2.10752V30.4479H0ZM7.32768 29.2918C7.39252 29.2918 7.58706 29.2918 7.87887 29.2918C8.2031 29.2918 8.55976 29.2918 9.01368 29.2918C9.43519 29.2918 9.92154 29.2918 10.4079 29.2918C10.8942 29.2918 11.3806 29.2918 11.8345 29.2918C12.2884 29.2918 12.6775 29.2918 13.0018 29.2918C13.326 29.2918 13.5205 29.2918 13.6178 29.2918C14.4284 29.2918 15.0769 29.2293 15.5632 29.1355C16.082 29.0105 16.5035 28.8855 16.7953 28.698C17.1195 28.5418 17.3465 28.3543 17.541 28.1668C17.7031 27.9793 17.8653 27.8231 18.0274 27.6669L18.4813 27.9794C18.3516 28.1981 18.1895 28.4481 17.995 28.7293C17.8004 29.0105 17.541 29.2917 17.2168 29.573C16.8926 29.8229 16.5035 30.0729 16.0496 30.2604C15.5956 30.4479 15.0769 30.5417 14.4608 30.5417C14.169 30.5417 13.7151 30.5417 13.1639 30.5417C12.6127 30.5417 11.9966 30.5416 11.3157 30.5104C10.6349 30.5104 9.95396 30.4792 9.24065 30.4792C8.52734 30.4792 7.87887 30.4479 7.26283 30.4479C6.64678 30.4479 6.12801 30.4167 5.70651 30.4167C5.28501 30.4167 5.02562 30.4167 4.89593 30.4167V29.3855L14.0717 16.574H13.942C13.6178 16.574 13.1963 16.574 12.71 16.574C12.2236 16.574 11.7048 16.5427 11.1536 16.5427C10.6024 16.5427 10.0188 16.5115 9.43519 16.5115C8.85157 16.5115 8.30037 16.4803 7.7816 16.4803C7.26283 16.449 6.8089 16.449 6.3874 16.449C5.9659 16.449 5.64166 16.4178 5.4147 16.4178L5.54439 15.4491H16.5359V16.3865L7.32768 29.2918ZM32.5206 25.1671C32.5206 25.917 32.3909 26.6357 32.0991 27.2919C31.8397 27.9481 31.4182 28.5418 30.867 29.0418C30.3158 29.5417 29.6674 29.9479 28.8568 30.2292C28.0462 30.5104 27.1383 30.6666 26.0684 30.6666C25.1929 30.6666 24.4148 30.5729 23.7015 30.3854C22.9881 30.1979 22.4045 29.9167 21.8858 29.4792C21.3994 29.073 21.0103 28.5106 20.7185 27.8231C20.4591 27.1357 20.3294 26.3232 20.3294 25.3546V15.4491H22.3721V25.667C22.3721 26.417 22.4694 27.0419 22.6315 27.5419C22.7936 28.0418 23.053 28.4168 23.3772 28.7293C23.7015 29.0105 24.0905 29.198 24.5769 29.323C25.0632 29.448 25.6144 29.5105 26.2305 29.5105C27.0086 29.5105 27.6895 29.448 28.2732 29.2918C28.8568 29.1355 29.3431 28.8855 29.6349 28.573C29.8943 28.2918 30.1213 27.8856 30.251 27.3856C30.3807 26.8857 30.4455 26.292 30.4455 25.6358V15.4803H32.4882V25.1671H32.5206ZM51.8125 30.4479L50.548 19.0113L45.0684 30.4479H44.0957L38.1623 19.0113L37.1247 30.4479H35.7305L37.3193 15.3553H38.5838L44.9063 27.6669L50.8398 15.3553H52.1367L53.8552 30.4479H51.8125ZM57.1299 30.4479V15.4491H59.2374V30.4479H57.1299Z" fill="url(#paint0_radial_898_15)"/>
<path d="M67.7988 30.448V15.4492H69.9063V30.448H67.7988ZM76.8125 30.448V16.6053L72.0139 16.5428L72.176 15.4492H83.7187L83.5566 16.4804L78.9201 16.6053V30.448H76.8125ZM96.299 30.6355C95.1641 30.6355 94.2239 30.448 93.4457 30.073C92.6675 29.6981 92.0191 29.1669 91.5327 28.5107C91.0464 27.8232 90.6897 27.0108 90.4628 26.0733C90.2358 25.1047 90.1385 24.0423 90.1385 22.8861C90.1385 21.4487 90.3655 20.2613 90.787 19.2926C91.2085 18.324 91.7597 17.5428 92.4406 16.9491C93.1215 16.3554 93.8996 15.9179 94.7426 15.6679C95.5856 15.4179 96.4611 15.2617 97.3041 15.2617C97.6283 15.2617 97.9525 15.2617 98.3416 15.2929C98.7307 15.3242 99.0874 15.3242 99.4764 15.3554C99.8331 15.3867 100.19 15.4179 100.482 15.4492C100.806 15.4804 101.065 15.5117 101.227 15.5429L100.676 17.324C100.482 17.2615 100.19 17.1991 99.8331 17.1053C99.4764 17.0116 99.0874 16.9491 98.6334 16.8866C98.2119 16.8241 97.8229 16.7616 97.4014 16.7303C96.9799 16.6678 96.6556 16.6678 96.3962 16.6678C95.7802 16.6678 95.2614 16.7303 94.8399 16.8241C94.4184 16.9178 93.9969 17.1053 93.6078 17.3865C93.1539 17.7303 92.8297 18.3865 92.6351 19.3239C92.4406 20.2613 92.3757 21.4487 92.3757 22.8548C92.3757 25.0109 92.7 26.667 93.3484 27.792C93.9969 28.9169 95.0669 29.4481 96.5259 29.4481C96.9474 29.4481 97.3365 29.4481 97.7904 29.4168C98.2119 29.3856 98.6659 29.3543 99.0874 29.2919C99.5089 29.2294 99.9628 29.1669 100.352 29.0731C100.773 28.9794 101.162 28.8856 101.519 28.7606V29.5418C101.13 29.7293 100.741 29.8855 100.287 30.0105C99.8655 30.1355 99.4116 30.2605 98.9577 30.3543C98.5037 30.448 98.0498 30.5105 97.5959 30.573C97.142 30.6355 96.7205 30.6355 96.299 30.6355ZM118.703 22.8861C118.703 24.0735 118.541 25.1672 118.217 26.1046C117.893 27.0733 117.439 27.8857 116.791 28.5419C116.174 29.2293 115.364 29.7293 114.424 30.1043C113.483 30.4792 112.381 30.6355 111.116 30.6355C109.852 30.6355 108.75 30.448 107.809 30.073C106.869 29.6981 106.123 29.1669 105.54 28.5107C104.956 27.8232 104.502 27.0108 104.243 26.0733C103.983 25.1047 103.821 24.0423 103.821 22.8861C103.821 21.7299 103.951 20.6675 104.243 19.7301C104.534 18.7927 104.956 18.0115 105.572 17.3553C106.156 16.6991 106.934 16.1679 107.842 15.8242C108.75 15.4804 109.852 15.2929 111.116 15.2929C112.381 15.2929 113.483 15.4804 114.424 15.8242C115.364 16.1679 116.142 16.6991 116.791 17.3553C117.407 18.0115 117.893 18.7927 118.217 19.7301C118.541 20.6675 118.703 21.6987 118.703 22.8861ZM116.434 22.8861C116.434 21.9174 116.337 21.0425 116.142 20.2613C115.948 19.4801 115.623 18.7927 115.169 18.2302C114.748 17.6678 114.197 17.2303 113.516 16.9178C112.867 16.6053 112.057 16.4491 111.149 16.4491C110.338 16.4491 109.593 16.5428 108.912 16.6991C108.231 16.8553 107.68 17.1053 107.258 17.449C107.031 17.6365 106.837 17.9177 106.707 18.2615C106.545 18.6364 106.447 19.0427 106.35 19.5426C106.253 20.0113 106.188 20.5425 106.156 21.1362C106.123 21.6987 106.091 22.2924 106.091 22.9173C106.091 23.8548 106.188 24.7297 106.35 25.5421C106.512 26.3546 106.804 27.042 107.193 27.6357C107.582 28.2294 108.101 28.6669 108.717 29.0106C109.366 29.3543 110.176 29.5106 111.149 29.5106C112.057 29.5106 112.867 29.4168 113.483 29.2606C114.132 29.1044 114.715 28.7919 115.202 28.3857C115.429 28.1982 115.623 27.9482 115.753 27.5732C115.915 27.1983 116.045 26.7608 116.142 26.2608C116.239 25.7609 116.304 25.2297 116.369 24.636C116.434 24.0423 116.434 23.4798 116.434 22.8861ZM137.541 30.448L136.277 19.0114L130.797 30.448H129.825L123.891 19.0114L122.854 30.448H121.459L123.048 15.3554H124.313L130.635 27.667L136.569 15.3554H137.866L139.584 30.448H137.541ZM145.809 23.6673L146.263 23.6048C146.815 23.5111 147.333 23.4173 147.82 23.2611C148.306 23.1048 148.76 22.8861 149.117 22.6049C149.473 22.3236 149.765 21.9487 149.992 21.48C150.219 21.0113 150.316 20.3863 150.316 19.6051C150.316 19.0427 150.219 18.5427 150.057 18.1365C149.862 17.7303 149.635 17.3865 149.311 17.1366C148.987 16.8866 148.598 16.6678 148.111 16.5428C147.658 16.4179 147.139 16.3554 146.588 16.3554C146.296 16.3554 146.036 16.3554 145.842 16.3866C145.615 16.3866 145.355 16.4179 145.064 16.4491V30.4168H142.956V15.4804C143.605 15.4179 144.286 15.3867 145.064 15.3554C145.842 15.3242 146.588 15.3242 147.333 15.3242C148.241 15.3242 149.019 15.4179 149.7 15.6054C150.381 15.7929 150.932 16.0741 151.354 16.4491C151.775 16.7928 152.1 17.2303 152.326 17.7615C152.553 18.2615 152.651 18.8552 152.651 19.4801C152.651 20.1676 152.521 20.7925 152.262 21.355C152.002 21.9174 151.613 22.4486 151.062 22.8861C150.543 23.3236 149.862 23.6673 149.052 23.9173C148.241 24.1673 147.268 24.2922 146.134 24.2922H146.004L145.809 23.6673ZM164.129 30.448L162.183 24.9484L156.185 25.0109L154.077 30.4168H152.521L158.681 15.5429L160.497 15.043L166.269 30.4168H164.129V30.448ZM161.859 23.9798L159.265 16.9803L156.574 23.9798H161.859ZM180.664 30.5105L169.673 18.8239H169.641C169.673 19.9176 169.673 20.9487 169.705 21.8549C169.705 22.2611 169.705 22.6361 169.705 23.0423C169.705 23.4173 169.705 23.761 169.705 24.1047C169.705 24.4172 169.705 24.6985 169.705 24.9484C169.705 25.1984 169.705 25.3547 169.705 25.4171V30.4793H168.311V15.3867H169.251L180.243 27.042C180.211 26.0109 180.211 25.0734 180.211 24.1985C180.211 23.8235 180.211 23.4486 180.211 23.0736C180.211 22.6986 180.211 22.3236 180.211 22.0112C180.211 21.6674 180.211 21.355 180.211 21.105C180.211 20.855 180.211 20.6363 180.211 20.48V15.5117H181.605V30.573H180.664V30.5105ZM191.105 30.448H189.062V24.6985L183.712 15.4492H186.079L190.456 23.4173L194.542 15.4492H196.001L191.105 24.6985V30.448Z" fill="#333333"/>
<path d="M122.04 8.60593C122.494 8.13721 123.532 7.51227 123.953 7.57476C124.375 7.63726 125.315 7.606 127.293 10.3558C128.882 12.5431 130.341 15.6991 130.892 16.449C131.313 14.6679 130.957 10.637 128.622 7.26229C127.066 5.1687 126.255 4.66874 126.028 4.69999C126.093 4.575 126.126 4.20002 126.32 3.54382C126.515 2.88763 126.936 2.73139 126.936 2.6689C126.709 2.57515 125.996 2.35641 125.672 2.38766C125.347 2.45016 124.537 2.79389 124.148 2.98137C123.888 2.54391 122.818 1.63773 120.841 1.01278C116.399 -0.424604 113.351 -0.0808923 111.859 0.512811C112.994 0.950276 114.777 1.51274 116.301 2.10645C118.474 2.91888 119.706 3.51257 120.16 3.88754C120.646 4.29376 121.295 4.9812 121.295 5.76239C121.295 6.51233 120.841 7.10605 120.646 7.35603C120.452 7.57476 117.793 10.137 117.793 10.137L120.192 9.13714L119.446 11.7932C120.16 10.887 121.619 9.10589 122.04 8.60593Z" fill="url(#paint1_radial_898_15)"/>
<defs>
<radialGradient id="paint0_radial_898_15" cx="0" cy="0" r="1" gradientUnits="userSpaceOnUse" gradientTransform="translate(97.1207 24.9733) rotate(-90.2748) scale(35.9953 147.228)">
<stop stop-color="#00CC99"/>
<stop offset="1" stop-color="#009B74"/>
</radialGradient>
<radialGradient id="paint1_radial_898_15" cx="0" cy="0" r="1" gradientUnits="userSpaceOnUse" gradientTransform="translate(121.471 8.22014) rotate(-90.3861) scale(12.3033 14.1705)">
<stop stop-color="#00CC99"/>
<stop offset="1" stop-color="#009B74"/>
</radialGradient>
</defs>
</svg>
